<svg viewBox="64 80 440 250" fill="none" xmlns="http://www.w3.org/2000/svg">
<style>path{fill:#1a1a1a}@media(prefers-color-scheme:dark){path{fill:#ffffff}}</style>
<path d="M237.54 100.55C242.413 103.29 274.164 134.069 279.869 139.663C288.363 133.13 305.006 116.181 313.372 108.075C349.919 142.063 386.272 177.403 423.165 210.868L409.983 210.906C402.596 204.878 391.405 193.665 384.152 186.828L337.819 143.303C330.696 136.601 320.626 126.689 313.129 120.84C296.254 136.714 279.532 152.75 262.965 168.946C268.341 174.272 273.73 179.73 279.391 184.741C287.78 177.908 305.065 160.808 313.132 152.966C319.818 158.311 328.669 166.94 335.234 172.994C348.923 185.693 362.693 198.305 376.542 210.829C372.159 210.935 367.443 210.839 363.032 210.833C347.879 197.872 328.31 176.755 313.056 165.35C308.215 169.559 304.136 173.701 299.615 178.256C304.645 183.211 311.333 188.744 316.748 193.45L336.201 210.804C331.792 210.903 327.05 210.828 322.614 210.831C313.944 203.308 301.368 191.231 292.633 184.645L279.356 197.316L253.433 172.67C248.582 168.08 241.956 161.497 236.817 157.62C231.295 163.421 223.747 170.265 217.867 175.892L181.495 210.859C177.063 210.941 172.312 210.85 167.854 210.838C190.779 190.209 214.952 166.577 237.059 145.034C243.434 150.707 249.681 156.524 255.796 162.478C260.256 159.725 269.491 150.266 273.739 146.096C264.472 137.297 247.308 120.203 237.63 112.749L137.957 210.891L124.4 210.831C162.608 174.862 199.496 136.665 237.54 100.55Z"/>
<path d="M141.335 305.459C161.367 304.752 184.871 305.362 205.331 305.358L331.764 305.414L376.465 305.445C381.389 305.44 388.426 304.926 393.093 305.555C397.887 306.203 399.335 312.031 393.689 314.635C374.528 315.019 354.419 314.685 335.153 314.684L222.771 314.68L166.91 314.684C160.048 314.687 153.185 314.745 146.324 314.774C142.602 314.789 140.253 315.097 137.733 311.946C136.737 308.155 137.776 306.958 141.335 305.459Z"/>
<path d="M302.991 264.502L442.734 264.727L477.726 264.652C483.262 264.628 496.893 263.094 499.963 267.524C500.546 271.475 498.963 272.97 495.264 273.619L357.159 273.61C341.587 273.625 326.012 273.676 310.44 273.655C305.666 273.648 299.458 274.769 297.204 269.945C297.248 265.843 299.427 264.962 302.991 264.502Z"/>
<path d="M74.7891 264.518C87.61 264.166 102.644 264.605 115.642 264.589L201.101 264.483L241.074 264.555C247.385 264.568 254.386 264.291 260.634 264.925C262.915 265.157 263.401 265.873 264.566 267.448C265.394 271.213 263.596 272.707 260.303 273.623C240.152 273.609 74.9449 274.503 71.6678 273.005C70.1894 272.329 69.3023 271.498 68.7123 269.986C68.3473 266.07 71.5875 264.827 74.7891 264.518Z"/>
<path d="M237.373 178.485C240.485 179.786 268.058 206.369 272.817 210.845C268.527 210.968 263.803 210.846 259.478 210.824C252.872 204.665 244.719 196.601 237.81 191.13C235.466 191.94 219.213 208.085 216.315 210.877L202.862 210.845C214.129 199.994 225.924 189.182 237.373 178.485Z"/>
</svg>
