<svg width="1200" height="457" viewBox="0 0 1200 457" fill="red" xmlns="http://www.w3.org/2000/svg" style="color:blue; --bg:red">
<g clip-path="url(#clip0_1_2)">
<path d="M0 0H1200V457H0V0Z"/>
<path d="M237.54 100.55C242.413 103.29 274.164 134.069 279.869 139.663C288.363 133.13 305.006 116.181 313.372 108.075C349.919 142.063 386.272 177.403 423.165 210.868L409.983 210.906C402.596 204.878 391.405 193.665 384.152 186.828L337.819 143.303C330.696 136.601 320.626 126.689 313.129 120.84C296.254 136.714 279.532 152.75 262.965 168.946C268.341 174.272 273.73 179.73 279.391 184.741C287.78 177.908 305.065 160.808 313.132 152.966C319.818 158.311 328.669 166.94 335.234 172.994C348.923 185.693 362.693 198.305 376.542 210.829C372.159 210.935 367.443 210.839 363.032 210.833C347.879 197.872 328.31 176.755 313.056 165.35C308.215 169.559 304.136 173.701 299.615 178.256C304.645 183.211 311.333 188.744 316.748 193.45L336.201 210.804C331.792 210.903 327.05 210.828 322.614 210.831C313.944 203.308 301.368 191.231 292.633 184.645L279.356 197.316L253.433 172.67C248.582 168.08 241.956 161.497 236.817 157.62C231.295 163.421 223.747 170.265 217.867 175.892L181.495 210.859C177.063 210.941 172.312 210.85 167.854 210.838C190.779 190.209 214.952 166.577 237.059 145.034C243.434 150.707 249.681 156.524 255.796 162.478C260.256 159.725 269.491 150.266 273.739 146.096C264.472 137.297 247.308 120.203 237.63 112.749L137.957 210.891L124.4 210.831C162.608 174.862 199.496 136.665 237.54 100.55Z" fill="currentColor"/>
<path d="M983.912 182.277C996.645 181.28 1023.02 180.493 1032.62 189.481C1046.16 202.169 1045.96 227.3 1033.91 241.414C1021.42 252.747 1000.27 250.058 983.76 249.722L983.912 182.277Z" fill="currentColor"/>
<path d="M996.809 193.013C1004.6 192.792 1015.59 191.925 1021.91 197.077C1031.96 205.276 1030.77 224.095 1023.47 233.565C1015.85 240.005 1006.32 238.587 996.697 238.385C996.686 223.866 996.211 207.285 996.809 193.013Z" fill="var(--bg)"/>
<path d="M527.802 181.889C531.231 181.781 535.208 181.922 538.68 181.964C540.859 187.32 555.312 229.707 557.334 230.506C559.007 229.195 573.534 187.774 575.762 182.248C581.286 181.895 586.91 182.071 592.453 182.154L592.699 249.681C588.727 249.791 584.44 249.679 580.443 249.65C580.675 238.243 580.485 226.052 580.523 214.585C580.61 211.88 580.97 206.735 579.805 204.431L579.074 204.297C576.501 207.664 564.505 243.722 562.702 249.723C559.056 249.854 554.963 249.715 551.28 249.669C549.869 244.797 546.594 236.432 544.795 231.431C541.579 222.487 537.911 210.279 533.545 202.166C532.782 216.32 533.381 235.344 533.415 249.855C529.487 249.963 525.169 249.776 521.211 249.684C521.517 234.331 521.231 218.846 521.403 203.505C521.453 199.016 521.098 186.504 521.841 182.871C523.271 181.789 525.904 181.962 527.802 181.889Z" fill="currentColor"/>
<path d="M1037.04 277.118C1041.37 277.016 1045.9 276.897 1050.4 277.01C1060.54 277.243 1079.74 274.898 1084.66 287.04C1089.83 299.788 1083.83 307.242 1072.97 312.338C1083.36 319.228 1085.26 332.312 1089.6 344.643C1086.18 344.716 1077.29 345.699 1075.1 343.522C1073.29 338.012 1071.63 332.436 1069.9 326.901C1066.52 316.102 1059.6 316.246 1050.19 316.705C1049.88 325.78 1050.07 335.657 1050.08 344.791C1045.68 344.926 1040.97 344.825 1036.54 344.809C1036.97 322.249 1037.14 299.684 1037.04 277.118Z" fill="currentColor"/>
<path d="M1050.04 287.104C1060.61 286.843 1081.44 286.42 1070.81 303.867C1065.31 307.697 1056.71 306.504 1049.98 306.287L1050.04 287.104Z" fill="var(--bg)"/>
<path d="M752.947 182.192C757.863 181.837 760.623 181.73 765.609 181.939C765.756 204.517 765.762 227.095 765.621 249.672L759.006 249.99L752.033 249.695L733.676 220.294C730.107 214.6 725.484 206.752 721.271 201.776C720.404 214.197 721.078 236.502 721.072 249.688C716.883 249.835 712.418 249.714 708.205 249.674L708.264 207.474C708.258 200.663 707.9 189.402 708.568 182.881C709.664 181.819 710.139 182.112 712.031 181.881C715.74 181.741 719.848 182.035 723.586 182.222C731.994 194.721 744.451 216.651 752.918 227.408L752.947 182.192Z" fill="currentColor"/>
<path d="M912.516 181.9C915.978 181.806 920.004 182.039 923.514 182.163C929.672 190.33 936.68 203.659 942.615 212.469C945.24 216.363 948.205 222.192 951.439 225.491L952.863 225.13C953.092 223.784 953.021 222.442 953.004 221.083C952.799 208.112 953.027 195.145 953.186 182.174C957.668 181.923 961.102 181.962 965.549 182.08C965.848 204.507 965.701 227.283 965.736 249.738L958.846 249.936L952.002 249.701L933.293 219.897C929.842 214.399 925.102 206.359 921.135 201.535L921.176 249.881C916.939 250.007 912.34 249.824 908.08 249.738L908.279 207.619C908.291 200.144 907.998 190.285 908.514 182.972C909.826 181.795 910.436 182.106 912.516 181.9Z" fill="currentColor"/>
<path d="M141.335 305.459C161.367 304.752 184.871 305.362 205.331 305.358L331.764 305.414L376.465 305.445C381.389 305.44 388.426 304.926 393.093 305.555C397.887 306.203 399.335 312.031 393.689 314.635C374.528 315.019 354.419 314.685 335.153 314.684L222.771 314.68L166.91 314.684C160.048 314.687 153.185 314.745 146.324 314.774C142.602 314.789 140.253 315.097 137.733 311.946C136.737 308.155 137.776 306.958 141.335 305.459Z" fill="currentColor"/>
<path d="M858.533 181.917C864.053 181.723 868.289 181.792 873.814 182.034C875.918 188.958 879.539 198.144 882.029 205.131L897.803 249.651C893.033 249.85 888.398 249.788 883.635 249.747C881.906 243.931 880.541 239.716 878.32 234.076L872.607 233.954C865.512 233.871 858.41 233.932 851.314 234.138C849.879 239.334 847.945 244.679 846.199 249.799C841.863 250.016 837.064 249.836 832.693 249.762C833.268 247.477 834.141 245.12 834.961 242.9C842.156 223.305 848.402 203.328 855.867 183.845C856.412 182.43 857.285 182.319 858.533 181.917Z" fill="currentColor"/>
<path d="M864.246 195.247C867.205 196.594 873.732 218.892 875.057 222.807C872.531 223.003 869.309 222.995 866.719 223.054C862.775 223.145 858.984 222.973 855.053 222.82C858.246 214.515 861.123 204.026 864.246 195.247Z" fill="var(--bg)"/>
<path d="M985.359 277.208C991.225 276.893 996.539 276.95 1002.42 277.012C1005.32 283.81 1008.71 294.155 1011.21 301.276C1016.23 315.807 1021.38 330.286 1026.7 344.712C1022.04 344.866 1017.15 344.781 1012.47 344.773C1011.29 340.526 1009.83 333.83 1007.37 330.083C1006.63 328.952 1005.25 329.145 1003.86 329.035L980.092 329.11C978.715 334.191 976.781 339.757 975.146 344.818C970.518 344.831 965.883 344.792 961.254 344.699C968.373 325.937 974.572 306.825 981.363 287.944C982.658 284.351 983.836 280.71 985.359 277.208Z" fill="currentColor"/>
<path d="M993.316 290.269C996.158 292.037 1002.08 313.009 1003.62 317.782C1001.23 317.979 998.098 317.982 995.654 318.046C991.863 318.112 988.107 317.996 984.322 317.902C985.828 311.493 990.82 295.936 993.316 290.269Z" fill="var(--bg)"/>
<path d="M755.912 86.8605C761.139 86.7181 767.584 86.5863 772.717 86.9917C776.215 94.8023 779.959 106.559 782.807 114.749L797.004 154.628C792.434 154.755 787.617 154.679 783.029 154.681C781.553 150.42 779.883 143.363 777.551 139.649C776.918 138.636 775.465 138.832 774.17 138.753L750.902 138.821C749.156 144.158 747.463 149.422 745.5 154.686C741.041 154.768 736.4 154.667 731.93 154.635C739.254 134.269 747.943 105.943 755.912 86.8605Z" fill="currentColor"/>
<path d="M763.588 99.9342C763.641 99.9693 763.693 100.007 763.746 100.041C766.91 102.009 772.875 123.408 774.334 127.686C771.223 127.86 767.678 127.846 764.525 127.906C761.25 127.958 757.541 127.764 754.23 127.662C757.336 118.688 760.26 108.661 763.588 99.9342Z" fill="var(--bg)"/>
<path d="M630.041 181.893C634.576 181.783 638.947 181.965 643.471 182.124C651.744 204.55 659.719 227.082 667.406 249.714C662.467 249.94 658.359 249.836 653.437 249.687C651.885 245.82 649.764 238.3 648.439 234.077C646.096 233.904 642.445 233.973 640.002 233.942C633.832 233.956 627.662 234.026 621.492 234.154C619.693 239.279 617.982 244.625 616.26 249.792C611.402 250.009 607.254 249.854 602.42 249.677C610.014 231.116 618.088 202.33 626.033 182.995C626.402 182.106 628.898 182.042 630.041 181.893Z" fill="currentColor"/>
<path d="M634.096 195.346C636.891 197.147 643.172 218.173 644.73 222.86C642.07 223.063 638.754 223.059 636.035 223.124C631.904 223.193 628.916 223.104 624.797 222.809C627.656 214.096 630.773 203.769 634.096 195.346Z" fill="var(--bg)"/>
<path d="M670.992 277.273C675.867 276.708 683.127 276.974 688.084 277.093C694.184 297.177 704.596 324.888 711.832 344.794C707.156 344.995 702.381 344.819 697.687 344.712C696.504 340.545 694.928 333.765 692.666 330.091C691.963 328.947 690.604 329.147 689.209 329.033L665.771 329.175C664.184 334.37 662.391 339.683 660.715 344.866C656.326 344.928 651.639 344.784 647.227 344.728C655.383 322.739 662.402 299.04 670.992 277.273Z" fill="currentColor"/>
<path d="M678.627 290.224C681.885 292.266 687.416 312.843 689.068 317.962L681.357 318.172C677.473 318.235 673.529 318.083 669.645 317.974C670.986 311.894 676.365 296.19 678.627 290.224Z" fill="var(--bg)"/>
<path d="M876.738 276.793C878.736 276.716 881.625 276.828 883.688 276.849L883.787 344.744C879.615 344.879 874.939 344.745 870.727 344.717L870.75 314.062C860.818 313.818 850.102 314.014 840.106 314.036L840.082 344.762C835.887 344.984 830.971 344.828 826.717 344.795C826.652 322.241 826.705 299.687 826.881 277.134C831.674 276.901 835.201 276.925 839.959 277.069C840.24 285.167 840.064 294.11 840.07 302.27C848.842 302.894 862.031 302.585 870.809 302.317C870.768 297.789 870.316 281.669 871.09 277.78C872.455 276.749 874.934 276.881 876.738 276.793Z" fill="currentColor"/>
<path d="M581.301 86.9618C585.142 86.6349 589.482 86.7538 593.373 86.772C593.695 94.7976 593.496 104.114 593.52 112.238C602.186 112.885 615.65 112.455 624.586 112.426L624.645 86.9232C628.846 86.6484 633.539 86.7644 637.787 86.7784C638.115 101.445 637.881 116.486 637.975 131.181C638.004 135.949 638.332 150.01 637.693 153.908C636.316 155.044 633.902 154.733 632.016 154.72L624.521 154.662L624.563 123.593C614.232 123.49 603.902 123.478 593.578 123.56C593.426 133.805 593.537 144.365 593.52 154.635C589.272 154.709 584.841 154.635 580.577 154.628C580.689 148.04 580.427 88.8836 581.301 86.9618Z" fill="currentColor"/>
<path d="M565.553 277.188C570.002 276.906 573.885 276.918 578.32 276.948C578.521 291.254 578.33 305.814 578.429 320.145C578.467 325.67 578.798 339.297 578.116 344.193C576.85 345.055 574.205 344.842 572.551 344.86L565.471 344.685C565.581 334.471 565.615 324.255 565.574 314.039C555.738 313.733 544.618 313.947 534.685 313.923L534.762 344.937C530.343 345.02 525.832 344.882 521.406 344.795L521.527 277.148C526.012 276.924 530.068 276.955 534.538 277.004L534.546 302.252C543.681 302.863 556.617 302.663 565.731 302.385L565.553 277.188Z" fill="currentColor"/>
<path d="M536.809 86.2336C548.598 85.7807 556.044 85.8346 565.082 94.1086C563.076 97.2074 560.524 100.658 558.377 103.717C552.034 98.2046 541.808 93.4254 533.099 99.4959C531.385 100.69 529.924 103.211 529.79 105.389C533.049 117.123 566.566 110.46 567.446 131.772C568.212 150.327 558.752 154.924 542.095 155.819C533.685 155.415 526.019 153.364 519.315 148.063C513.013 143.079 519.798 138.09 523.549 134.196C530.517 141.446 535.986 145.483 546.536 144.049C551.738 143.342 555.5 138.751 553.974 133.758C550.843 123.51 532.64 126.549 525.061 120.176C521.426 117.119 519.147 115.524 518.205 110.48C516.06 95.6466 523.655 88.7916 536.809 86.2336Z" fill="currentColor"/>
<path d="M1101.75 277.262C1114.26 276.504 1133.47 277.118 1146.54 277.131L1146.59 287.652L1114.73 287.719C1114.45 292.421 1114.62 299.057 1114.61 303.903C1122.01 304.445 1134.92 304.076 1142.81 304.069L1142.93 314.7C1136.38 314.848 1121.75 314.004 1115.11 315.427C1114.84 315.485 1114.73 316.45 1114.63 316.881L1114.57 333.573C1122.78 334.287 1138.88 333.795 1147.68 333.838L1147.76 344.659C1133.94 345.248 1115.44 344.999 1101.53 344.765L1101.75 277.262Z" fill="currentColor"/>
<path d="M822.762 86.2541C834.223 85.6025 842.139 86.1017 850.887 94.1121C849.469 96.727 846.264 101.368 844.26 103.461C840.164 100.197 835.904 97.4289 830.543 96.9414C824.355 96.3784 816.316 98.0242 815.824 105.595C818.637 117.035 852.059 110.878 853.125 131.247C854.092 149.691 845.678 154.559 828.873 155.832C816.721 155.848 808.928 152.714 801.381 143.3C804.252 139.765 806.338 137.45 809.537 134.212C816.756 141.954 822.047 145.741 833.133 144.049C837.973 143.31 841.4 138.022 839.918 133.612C836.602 123.702 819.182 126.526 811.559 120.533C807.773 117.56 805.225 115.996 804.111 110.827C801.58 95.8147 809.631 88.8238 822.762 86.2541Z" fill="currentColor"/>
<path d="M596.256 277.262C609.791 276.636 626.783 277.128 640.57 277.151L640.646 287.656L608.953 287.741C608.666 292.47 608.818 299.086 608.801 303.957C617.285 304.445 628.272 304.125 636.932 304.116L636.955 314.663C631.061 314.888 614.924 313.673 609.252 315.696C608.988 315.789 608.895 317.474 608.83 317.996L608.777 333.581C618.422 334.233 631.945 333.843 641.936 333.799L642.018 344.723C628.277 345.244 609.779 345.012 596.039 344.694C596.367 322.218 596.437 299.739 596.256 277.262Z" fill="currentColor"/>
<path d="M302.991 264.502L442.734 264.727L477.726 264.652C483.262 264.628 496.893 263.094 499.963 267.524C500.546 271.475 498.963 272.97 495.264 273.619L357.159 273.61C341.587 273.625 326.012 273.676 310.44 273.655C305.666 273.648 299.458 274.769 297.204 269.945C297.248 265.843 299.427 264.962 302.991 264.502Z" fill="currentColor"/>
<path d="M925.143 276.122C938.467 274.69 950.924 277.944 956.625 291.005C953.543 293.139 949.705 295.426 946.488 297.458C942.193 290.354 936.416 285.322 927.422 286.861C922.793 287.621 918.662 290.21 915.961 294.045C910.764 301.391 910.195 315.547 913.535 323.507C919.002 336.544 936.533 338.555 944.625 326.75C945.41 325.072 946.178 323.199 946.922 321.485C951.047 323.274 953.76 324.558 957.668 326.754C954.105 336.91 949.084 342.762 938.186 345.037C919.318 349.026 901.887 339.202 898.758 319.489C895.389 298.235 902.684 280.195 925.143 276.122Z" fill="currentColor"/>
<path d="M74.7891 264.518C87.61 264.166 102.644 264.605 115.642 264.589L201.101 264.483L241.074 264.555C247.385 264.568 254.386 264.291 260.634 264.925C262.915 265.157 263.401 265.873 264.566 267.448C265.394 271.213 263.596 272.707 260.303 273.623C240.152 273.609 74.9449 274.503 71.6678 273.005C70.1894 272.329 69.3023 271.498 68.7123 269.986C68.3473 266.07 71.5875 264.827 74.7891 264.518Z" fill="currentColor"/>
<path d="M688.043 86.9882C700.523 86.4328 717.018 86.9097 729.797 86.9132L729.961 97.539C720.914 97.9621 709.084 97.6615 699.797 97.7629C699.75 103.823 699.809 109.883 699.961 115.941C708.463 116.232 718.137 116.025 726.727 116.04L726.873 126.851C718.793 127.334 708.381 126.822 699.885 127.037C699.627 135.85 699.773 145.77 699.727 154.659C695.314 154.75 690.668 154.666 686.232 154.659L686.473 106.74C686.496 103.349 686.303 89.9956 686.859 87.6696L688.043 86.9882Z" fill="currentColor"/>
<path d="M762.955 277.174C779.127 276.533 799.119 277.081 815.549 277.095L815.578 287.691L795.738 287.768V325.466V344.751C791.467 344.941 786.809 344.812 782.508 344.777C782.584 326.017 782.93 306.46 782.467 287.762L762.908 287.687L762.955 277.174Z" fill="currentColor"/>
<path d="M785.865 181.929C789.533 181.718 792.662 181.861 796.336 182.007C796.582 200.625 796.377 219.719 796.441 238.382C805.881 238.882 818.227 238.588 827.924 238.592C827.924 241.341 828.275 247.051 827.566 249.28L826.318 249.759C813.422 250.091 796.078 250.12 783.328 249.647C783.334 242.925 782.807 184.073 783.961 182.266L785.865 181.929Z" fill="currentColor"/>
<path d="M721.688 277.131C725.871 276.924 730.354 277.077 734.566 277.142L734.713 333.547C743.209 334.236 756.803 333.762 765.732 333.834C765.768 336.276 766.236 343.141 765.117 344.655C751.84 345.286 734.982 344.974 721.529 344.753C722.039 322.805 721.541 299.299 721.688 277.131Z" fill="currentColor"/>
<path d="M682.863 181.885C685.148 181.805 688.272 181.969 690.633 182.031C690.867 199.555 690.686 217.083 690.791 234.607C690.814 239.385 690.873 244.171 690.574 248.942C689.162 250.118 688.863 249.748 686.613 249.91L677.379 249.691L677.578 205.492C677.613 199.714 677.396 187.721 678.053 182.703C679.23 181.908 681.346 181.976 682.863 181.885Z" fill="currentColor"/>
<path d="M656.596 86.9577C660.656 86.6818 664.377 86.7919 668.437 86.8775C668.555 93.1389 669.1 153.192 667.816 154.666L655.559 154.64L655.687 104.42C655.699 101.275 655.254 89.1513 656.596 86.9577Z" fill="currentColor"/>
<path d="M237.373 178.485C240.485 179.786 268.058 206.369 272.817 210.845C268.527 210.968 263.803 210.846 259.478 210.824C252.872 204.665 244.719 196.601 237.81 191.13C235.466 191.94 219.213 208.085 216.315 210.877L202.862 210.845C214.129 199.994 225.924 189.182 237.373 178.485Z" fill="currentColor"/>
<path d="M577.348 373.959L585.497 373.829C588.574 382.365 591.539 390.944 594.381 399.562C597.182 392.656 600.404 381.712 603.205 374.135C605.221 373.869 608.42 373.93 610.535 373.905C610.582 382.204 611.039 398.416 610.23 405.974C608.713 407.077 608.654 406.694 606.369 406.713L605.584 405.902C604.77 402.614 605.156 396.581 605.244 392.991C605.338 390.529 605.104 386.984 604.998 384.443C601.389 390.608 599.684 400.916 595.248 406.845C594.697 407.581 594.486 407.37 593.344 407.484C590.004 404.187 586.219 390.166 583.092 384.171C582.573 389.272 583.692 404.235 582.032 406.405C580.441 406.492 579.24 406.723 577.879 405.917C576.919 401.992 577.332 379.199 577.348 373.959Z" fill="currentColor"/>
<path d="M552.688 372.048C554.562 371.902 556.389 371.549 557.997 372.477C558.616 376.853 559.181 405.021 557.064 407.138C553.726 407.588 552.589 404.399 551.68 404.4C550.423 404.401 548.201 407.588 541.428 407.062C533.638 402.261 535.243 395.953 535.662 387.952C542.348 376.851 545.706 383.37 551.165 383.472C553.491 381.016 552.76 375.67 552.688 372.048Z" fill="currentColor"/>
<path d="M544.735 386.577C555.111 386.738 555.433 397.472 548.478 402.615C548.195 402.609 547.913 402.6 547.63 402.586C539.115 402.146 538.663 391.693 544.735 386.577Z" fill="var(--bg)"/>
<path d="M664.049 371.184C665.502 371.575 665.824 371.723 667.148 372.388C667.219 372.927 667.441 374.729 667.395 375.145C666.902 379.912 668.725 404.392 666.328 406.899C660.82 408.3 663.059 402.622 657.486 406.073C654.416 407.976 651.656 407.214 648.451 405.965C639.756 397.382 643.705 374.234 661.893 384.506C661.951 381.13 661.471 377.195 661.898 373.858C662.133 372.06 662.619 372.113 664.049 371.184Z" fill="currentColor"/>
<path d="M653.742 386.542C664.096 386.643 664.324 398.055 657.545 402.656C648.041 402.455 648.146 391.624 653.742 386.542Z" fill="var(--bg)"/>
<path d="M183.205 373.892L190.751 373.814C192.08 377.253 201.503 403.727 201.447 405.682L200.391 406.616C198.44 407.039 198.193 407.054 196.284 406.488C193.298 403.997 196.461 400.532 191.718 399.072L180.568 399.126C179.699 401.504 179.64 404.269 178.03 406.019C176.205 407.008 175.245 406.807 173.133 406.706L172.588 405.971C174.024 398.922 180.514 381.419 183.205 373.892Z" fill="currentColor"/>
<path d="M186.507 380.546C188.807 382.224 191.914 391.14 190.64 394.008L188.521 394.487C185.788 394.494 184.305 395.037 182.981 392.606C182.703 389.41 185.248 383.969 186.507 380.546Z" fill="var(--bg)"/>
<path d="M332.758 381.553C338.685 381.817 342.926 384.064 344.785 390.047C345.984 393.936 345.55 398.146 343.582 401.709C341.471 405.471 339.024 406.401 335.205 407.482C330.233 407.373 329.221 406.983 324.952 404.655C318.681 395.253 320.125 383.914 332.758 381.553Z" fill="currentColor"/>
<path d="M330.894 386.664C333.646 386.633 335.908 386.34 337.754 388.769C341.027 393.079 339.914 399.279 335.828 402.56C325.597 402.645 324.875 392.356 330.894 386.664Z" fill="var(--bg)"/>
<path d="M420.493 381.54C424.121 381.981 424.647 382.575 427.509 384.753C435.208 384.572 442.996 371.875 443.319 396.181C443.35 398.586 443.759 405.063 442.274 406.75C431.007 407.894 444.088 386.505 433.219 386.671C426.363 386.775 428.233 400.525 428.307 405.002L428.061 406.22C426.916 407.071 425.319 406.783 423.847 406.71C421.253 404.262 424.203 393.275 422.334 388.176C421.375 387.171 420.344 386.565 418.918 386.576C409.305 386.647 416.058 402.984 411.878 406.952C409.873 407.302 410.539 407.253 408.502 406.494C407.312 404.651 407.815 387.305 407.852 384.151C407.868 382.797 408.698 382.47 409.619 381.855C411.262 382.153 411.892 383.104 413.294 384.323C416.261 382.817 417.236 382.287 420.493 381.54Z" fill="currentColor"/>
<path d="M380.827 374.014C384.968 373.899 398.618 373.142 401.537 374.54C403.714 381.126 390.513 379.052 386.538 379.01L386.463 387.218C389.213 387.278 398.142 386.758 399.549 387.965C400.055 389.828 400.035 390.059 399.394 391.883C396.633 393.282 389.148 390.54 386.532 393.113L386.476 401.789C391.252 402.132 397.259 400.948 400.951 402.697C402.234 404.312 401.907 403.625 401.982 405.841C399.75 407.537 384.488 406.817 380.583 406.763C380.868 396.03 380.684 384.827 380.827 374.014Z" fill="currentColor"/>
<path d="M217.868 373.941C219.8 373.871 220.662 373.89 222.582 374.104C225.82 378.641 217.287 412.994 236.299 399.764C240.427 396.891 235.897 377.528 238.796 374.158C240.592 373.83 240.892 373.735 242.587 374.403C243.734 375.808 243.272 378.606 243.182 380.561C243.327 387.331 244.835 399.372 239.739 404.398C235.736 408.509 224.796 408.593 221.151 404.103C215.715 397.406 217.495 382.203 217.868 373.941Z" fill="currentColor"/>
<path d="M627.305 381.512C638.139 380.863 639.158 387.043 639.65 395.877C636.105 395.999 625.646 394.67 623.59 396.1C623.086 404.001 630.873 404.277 635.502 399.506C637.652 400.283 637.922 400.42 638.25 402.489C636.896 406.228 631.658 407.785 628.102 407.514C617.08 406.674 617.244 396.913 617.783 388.973C620.437 384.244 622.441 382.93 627.305 381.512Z" fill="currentColor"/>
<path d="M626.83 386.079C630.105 385.986 635.49 387.61 633.656 391.63L631.787 392.187C628.939 392.258 624.633 393.121 623.537 390.134C624.023 388.316 625.424 387.328 626.83 386.079Z" fill="var(--bg)"/>
<path d="M720.357 381.562C735.398 380.305 730.752 391.569 732.117 401.523C733.687 402.714 735.117 403.507 734.988 405.537C733.453 407.311 734.197 406.841 732.018 407.533C729.902 407.265 728.279 405.756 726.551 404.46C722.842 404 723.791 408.894 714.779 406.49C712.775 404.484 711.691 402.905 711.48 399.934C710.918 392.236 726.527 393.31 726.457 388.205C721.922 382.75 717.767 389.574 714.082 388.335C712.992 386.683 713.197 387.421 713.191 385.549C714.955 383.124 717.633 382.417 720.357 381.562Z" fill="currentColor"/>
<path d="M724.395 394.946C725.221 394.774 725.625 395.068 726.404 395.417C728.314 399.3 724.055 402.911 720.246 403.581C718.477 402.411 718.23 402.25 717.305 400.36C717.375 396.099 720.873 395.77 724.395 394.946Z" fill="var(--bg)"/>
<path d="M850.664 381.512C861.082 381.878 861.926 386.719 862.008 395.781C856.998 395.891 852.316 395.086 847.131 395.659C845.707 396.561 846.105 396.02 845.654 397.708C846.07 399.355 846.92 399.969 848.133 401.05C853.43 405.761 856.09 399.603 859.664 399.545C864.199 403.72 857.332 407.107 854.215 407.578C838.617 409.933 832.975 385.02 850.664 381.512Z" fill="currentColor"/>
<path d="M849.463 386.082C852.727 385.977 856.682 386.8 856.787 390.77C855.322 392.265 855.861 391.83 853.564 392.264C850.781 392.364 846.99 392.999 846.199 389.85C846.803 388.019 847.951 387.32 849.463 386.082Z" fill="var(--bg)"/>
<path d="M803.115 381.501C818.303 380.922 812.549 391.71 814.506 401.572C814.617 402.121 817.277 402.837 817.102 405.529C815.73 407.341 816.416 406.875 814.389 407.611C812.344 407.362 810.51 405.709 808.805 404.451C804.416 404.463 806.426 409.305 796.881 406.367C785.666 394.711 806.555 392.769 808.664 389.324C807.176 380.731 799.453 391.06 795.445 387.917C795.504 383.294 799.512 382.484 803.115 381.501Z" fill="currentColor"/>
<path d="M807.475 395.013C808.699 395.474 808.424 395.551 809.133 396.982C808.512 401.804 806.408 403.061 801.896 403.336C800.672 402.17 800.561 401.874 799.834 400.39C799.875 395.901 803.771 395.803 807.475 395.013Z" fill="var(--bg)"/>
<path d="M504.533 381.515C518.848 381.242 513.046 392.876 514.799 401.838C514.968 402.703 518.075 401.677 517.31 406.326C514.054 408.694 512.513 406.973 509.556 404.953C504.48 404.459 505.009 410.296 496.552 405.478C489.206 391.887 504.961 394.235 509.106 389.935C509.374 388.049 509.418 388.735 508.397 386.896C503.483 384.41 500.832 389.185 496.793 388.413C495.711 387.085 496.004 387.609 495.912 385.705C497.824 382.961 501.481 382.125 504.533 381.515Z" fill="currentColor"/>
<path d="M507.129 394.896C507.796 394.801 508.199 394.963 508.883 395.103L509.541 396.393C509.645 401.012 507.53 402.692 503.38 403.645C496.668 399.159 502.26 396.278 507.129 394.896Z" fill="var(--bg)"/>
<path d="M778.014 373.37C781.752 373.374 791.098 376.178 789.773 381.001C787.225 383.065 786.34 383.33 783.814 381.35C767.092 368.239 763.477 405.476 780.316 402.011C783.24 401.409 784.5 399.286 785.93 397.145L786.686 396.256L788.232 396.583C794.631 402.297 782.631 409.118 774.914 407.05C762.264 403.66 760.447 389.245 766.471 379.529C769.154 375.201 773.479 374.057 778.014 373.37Z" fill="currentColor"/>
<path d="M459.782 381.571C469.887 381.88 471.168 386.578 471.415 395.575C467.827 395.719 457.544 394.932 455.163 396.021C454.631 398.624 456.894 402.362 459.855 402.479C463.754 402.635 465.045 401.589 467.846 399.272C472.68 403.244 467.927 406.42 463.782 407.535C452.834 410.479 445.166 395.409 450.957 386.795C453.304 383.303 455.913 382.419 459.782 381.571Z" fill="currentColor"/>
<path d="M458.62 386.02C462.008 386.055 465.14 386.602 465.95 390.502C464.819 392.19 465.224 391.684 462.864 392.347C460.058 392.391 456.442 393.06 455.374 390.158C456.03 388.144 457.061 387.424 458.62 386.02Z" fill="var(--bg)"/>
<path d="M264.207 381.43C274.83 381.413 273.699 399.101 272.075 406.112C270.037 407.008 270.628 407.079 268.634 406.82C264.254 401.602 272.617 381.371 258.15 387.912C255.24 393.926 257.729 400.587 256.259 406.127C254.596 407.229 252.785 406.749 251.374 405.598C250.505 403.38 250.424 384.307 252.848 382.133C254.794 381.791 254.072 381.767 255.963 382.598C256.22 383.695 256.193 383.851 256.92 384.663C259.833 382.999 260.953 382.272 264.207 381.43Z" fill="currentColor"/>
<path d="M358.031 371.576C360.657 371.381 365.476 370.833 366.402 374.04C365.248 375.487 360.131 377.204 358.083 378.025C357.125 379.365 357.398 378.927 357.207 380.672C359.481 382.697 361.949 381.018 364.442 382.96C365.293 384.909 365.154 384.108 364.934 386.263C363.485 387.221 359.845 386.937 357.918 386.941L357.913 399.815C358.006 401.679 358.41 404.549 357.554 406.065C356.04 407.136 355.005 406.878 353.116 406.751C350.364 404.325 353.962 391.355 351.664 387.398C351.329 386.822 349.618 386.405 348.956 386.211C348.278 382.266 351.256 383.327 351.821 381.311C352.44 379.101 352.276 377.187 353.193 374.713C354.588 372.971 356.022 372.494 358.031 371.576Z" fill="currentColor"/>
<path d="M697.102 381.538C701.379 381.29 708.645 382.656 706.805 388.501C702.598 391.256 702.299 387.107 697.008 386.334C687.469 388.963 694.166 411.779 704.437 398.591C706.078 399.086 706.611 399.13 707.678 400.48C707.32 408.08 685.008 416.205 687.475 388.425L687.703 388.042C690.445 383.546 692.32 382.718 697.102 381.538Z" fill="currentColor"/>
<path d="M296.338 375.76C298.794 376.256 298.437 375.786 299.772 377.371C298.954 384.425 302.706 380.692 306.439 382.651C307.032 384.505 306.842 383.997 306.289 386.127C305.153 387.084 301.375 386.817 299.669 386.828C299.544 391.018 298.176 400.94 303.059 401.757C306.714 402.369 306.263 402.688 307.331 406.079C289.079 414.054 295.91 390.781 293.468 386.992L291.014 386.497C286.468 381.258 295.335 383.279 294.308 378.582C294.036 377.339 295.41 376.552 296.338 375.76Z" fill="currentColor"/>
<path d="M866.326 371.624C877.77 371.308 877.74 392.437 875.918 400.132C874.746 405.065 873.533 407.366 870.75 411.51C869.238 412.083 868.336 412.027 867.059 411.47C866.619 409.652 871.506 399.259 871.477 392.281C871.435 382.177 867.85 379.067 866.385 371.924L866.326 371.624Z" fill="currentColor"/>
<path d="M165.49 371.337C165.761 371.341 169.368 371.542 169.156 372.057C162.99 387.071 162.418 395.497 169.011 411.053L168.446 412.2C161.786 411.077 159.797 403.749 159.012 397.813C157.724 388.07 159.433 379.23 165.49 371.337Z" fill="currentColor"/>
<path d="M739.477 371.989C741.615 371.778 742.324 371.639 744.393 372.126C746.561 375.152 744.393 393.996 745.312 399.063C746.244 404.211 748.412 400.389 749.109 407.138C748.359 407.189 747.603 407.221 746.853 407.233C742.342 407.336 739.717 406.053 739.512 401.067C739.107 391.423 739.389 381.654 739.477 371.989Z" fill="currentColor"/>
<path d="M527.225 371.608C528.255 372.97 527.462 393.475 527.671 396.866C528.101 403.868 528.271 400.041 531.835 405.205L531.619 406.276C530.258 407.533 528.418 407.43 526.551 407.555C520.94 404.897 522.127 398.444 522.055 392.947C521.969 386.315 522.087 379.377 522.492 372.765C523.559 371.663 525.388 371.822 527.225 371.608Z" fill="currentColor"/>
<path d="M823.031 381.976C828.17 382.338 825.645 383.229 828.217 384.151C828.92 383.779 829.629 383.419 830.344 383.072C832.529 382.017 833.631 381.719 835.969 382.535C840.059 387.68 830.391 388.012 829.125 389.004C827.713 390.964 827.777 392.504 827.572 394.885C827.637 398.726 828.838 404.344 825.598 406.551C823.641 406.685 823.881 406.954 822.34 406.186C821.871 402.729 821.508 384.455 823.031 381.976Z" fill="currentColor"/>
<path d="M487.054 382.095C488.796 381.956 490.117 381.683 491.683 382.438C492.132 384.137 492.257 384.429 491.654 386.072C490.368 387.53 488.049 387.391 486.14 387.987C479.5 390.063 484.551 402.497 482.019 407.111C480.33 406.992 478.968 407.048 477.531 406.165C477.17 402.542 476.725 384.181 478.683 382.326C482.97 381.726 480.113 386.714 487.054 382.095Z" fill="currentColor"/>
<path d="M674.947 382.115C676.951 382.028 678.557 381.79 680.361 382.695C681.076 384.375 680.76 403.355 680.754 406.722C678.463 406.819 677.783 406.826 675.545 406.428C674.537 405.058 674.936 385.394 674.947 382.115Z" fill="currentColor"/>
<path d="M280.761 382.185C282.373 382.142 283.607 381.951 285.006 382.736C285.826 385.256 285.758 405.314 284.656 406.867C282.705 406.858 281.579 406.971 279.772 406.255C279.288 403.104 279.165 383.903 280.761 382.185Z" fill="currentColor"/>
<path d="M281.667 371.61C283.565 371.131 285.489 372.294 285.949 374.197C286.41 376.1 285.229 378.013 283.321 378.455C281.439 378.892 279.557 377.73 279.103 375.852C278.649 373.974 279.793 372.081 281.667 371.61Z" fill="currentColor"/>
<path d="M676.98 371.617C678.779 371.193 680.602 372.26 681.105 374.041C681.615 375.822 680.637 377.688 678.879 378.279C677.666 378.688 676.33 378.397 675.398 377.522C674.467 376.648 674.092 375.332 674.42 374.097C674.754 372.862 675.732 371.909 676.98 371.617Z" fill="currentColor"/>
</g>
<defs>
<clipPath id="clip0_1_2">
<rect width="1200" height="457" fill="white"/>
</clipPath>
</defs>
</svg>
